<svg width="84" height="22" viewBox="0 0 84 22" fill="none" xmlns="http://www.w3.org/2000/svg">
<path id="Vector" fill-rule="evenodd" clip-rule="evenodd" d="M68.6426 7.94445C68.4805 7.94445 68.325 8.00883 68.2104 8.12344C68.0958 8.23804 68.0314 8.39348 68.0314 8.55556V12.8333C68.0589 13 68.0463 13.1709 67.9946 13.3317C67.9429 13.4926 67.8537 13.6388 67.7342 13.7583C67.6147 13.8778 67.4685 13.967 67.3076 14.0187C67.1468 14.0704 66.9759 14.0831 66.8092 14.0556H61.3092V9.47222C61.3191 8.8676 61.2074 8.26715 60.9805 7.7066C60.7537 7.14604 60.4165 6.63682 59.9889 6.20923C59.5613 5.78164 59.0521 5.4444 58.4915 5.21758C57.931 4.99076 57.3305 4.87898 56.7259 4.88889H52.7537C52.3809 4.88889 51.7514 4.88889 51.5315 5.19445L50.3092 7.02778C50.077 7.33945 50.2237 7.94445 50.6148 7.94445H56.7259C57.1296 7.9492 57.5154 8.11169 57.8009 8.39718C58.0864 8.68267 58.2489 9.06851 58.2537 9.47222V14.0556H45.4203C45.2583 14.0556 45.1028 14.1199 44.9882 14.2345C44.8736 14.3492 44.8092 14.5046 44.8092 14.6667V16.5C44.8092 16.6621 44.8736 16.8175 44.9882 16.9321C45.1028 17.0467 45.2583 17.1111 45.4203 17.1111H47.8648C47.8041 17.5761 47.5914 18.0079 47.2598 18.3395C46.9282 18.671 46.4964 18.8837 46.0315 18.9444H40.5315C40.365 18.9705 40.1947 18.957 40.0345 18.9048C39.8743 18.8526 39.7287 18.7633 39.6095 18.6441C39.4904 18.525 39.4011 18.3794 39.3489 18.2192C39.2967 18.059 39.2831 17.8887 39.3092 17.7222V11.6111C39.3092 11.449 39.2448 11.2936 39.1302 11.179C39.0156 11.0644 38.8602 11 38.6981 11H36.8648C36.7027 11 36.5473 11.0644 36.4327 11.179C36.3181 11.2936 36.2537 11.449 36.2537 11.6111V17.7222C36.2537 20.4722 37.7815 22 40.5315 22H46.0315C47.3164 21.9631 48.5386 21.4362 49.4475 20.5272C50.3565 19.6182 50.8834 18.3961 50.9203 17.1111H60.6981C60.8602 17.1111 61.0156 17.0467 61.1302 16.9321C61.2448 16.8175 61.3092 16.6621 61.3092 16.5V15.8889L61.9753 16.7383C62.0746 16.8695 62.2061 16.9728 62.3571 17.0381C62.5081 17.1035 62.6734 17.1286 62.837 17.1111H66.8092C67.381 17.1499 67.9545 17.0659 68.4911 16.8647C69.0277 16.6634 69.515 16.3496 69.9203 15.9444C70.3255 15.5391 70.6393 15.0518 70.8405 14.5152C71.0418 13.9786 71.1258 13.4051 71.087 12.8333V8.55556C71.087 8.39348 71.0226 8.23804 70.908 8.12344C70.7934 8.00883 70.638 7.94445 70.4759 7.94445H68.6426ZM64.3648 18.9444C64.2027 18.9444 64.0473 19.0088 63.9327 19.1234C63.8181 19.238 63.7537 19.3935 63.7537 19.5556V21.3889C63.7537 21.551 63.8181 21.7064 63.9327 21.821C64.0473 21.9356 64.2027 22 64.3648 22H69.2537C69.4157 22 69.5712 21.9356 69.6858 21.821C69.8004 21.7064 69.8648 21.551 69.8648 21.3889V19.5556C69.8648 19.3935 69.8004 19.238 69.6858 19.1234C69.5712 19.0088 69.4157 18.9444 69.2537 18.9444H64.3648ZM53.3648 18.9444C53.2027 18.9444 53.0473 19.0088 52.9327 19.1234C52.8181 19.238 52.7537 19.3935 52.7537 19.5556V21.3889C52.7537 21.551 52.8181 21.7064 52.9327 21.821C53.0473 21.9356 53.2027 22 53.3648 22H55.5037C55.6657 22 55.8212 21.9356 55.9358 21.821C56.0504 21.7064 56.1148 21.551 56.1148 21.3889V19.5556C56.1148 19.3935 56.0504 19.238 55.9358 19.1234C55.8212 19.0088 55.6657 18.9444 55.5037 18.9444H53.3648ZM73.5314 4.88889C73.3694 4.88889 73.2139 4.95327 73.0993 5.06788C72.9847 5.18249 72.9203 5.33792 72.9203 5.5V7.33333C72.9203 7.49541 72.9847 7.65085 73.0993 7.76545C73.2139 7.88006 73.3694 7.94445 73.5314 7.94445H79.0314C79.1979 7.91834 79.3682 7.93194 79.5284 7.98413C79.6886 8.03632 79.8342 8.12562 79.9533 8.24476C80.0725 8.36391 80.1618 8.50952 80.214 8.66973C80.2662 8.82993 80.2798 9.00021 80.2537 9.16667V12.8333C80.2798 12.9998 80.2662 13.1701 80.214 13.3303C80.1618 13.4905 80.0725 13.6361 79.9533 13.7552C79.8342 13.8744 79.6886 13.9637 79.5284 14.0159C79.3682 14.0681 79.1979 14.0817 79.0314 14.0556H73.5314C73.3694 14.0556 73.2139 14.1199 73.0993 14.2345C72.9847 14.3492 72.9203 14.5046 72.9203 14.6667V16.5C72.9203 16.6621 72.9847 16.8175 73.0993 16.9321C73.2139 17.0467 73.3694 17.1111 73.5314 17.1111H79.0314C79.6032 17.1499 80.1767 17.0659 80.7133 16.8647C81.2499 16.6634 81.7372 16.3496 82.1425 15.9444C82.5477 15.5391 82.8615 15.0518 83.0628 14.5152C83.264 13.9786 83.348 13.4051 83.3092 12.8333V9.16667C83.348 8.59488 83.264 8.0214 83.0628 7.48479C82.8615 6.94819 82.5477 6.46088 82.1425 6.05563C81.7372 5.65039 81.2499 5.33659 80.7133 5.13535C80.1767 4.9341 79.6032 4.85006 79.0314 4.88889H73.5314ZM26.1826 4.88889L29.2381 0.916668C29.3036 0.836382 29.3456 0.739559 29.3596 0.636891C29.3735 0.534222 29.3588 0.4297 29.3171 0.334865C29.2753 0.240029 29.2082 0.158569 29.1231 0.0994769C29.038 0.0403848 28.9382 0.00595947 28.8348 1.49396e-06H26.4759C26.2916 -0.000283107 26.1095 0.0400984 25.9426 0.118267C25.7757 0.196435 25.6281 0.310464 25.5103 0.452224L20.3648 7.02778C20.0165 7.44945 20.1203 7.94445 20.6703 7.94445H27.6981C28.1021 7.93438 28.504 8.00654 28.8792 8.15653C29.2545 8.30653 29.5954 8.53123 29.8811 8.81699C30.1669 9.10276 30.3916 9.44362 30.5416 9.81889C30.6916 10.1942 30.7637 10.596 30.7537 11V14.0556H18.5315C18.3657 14.0777 18.1971 14.0613 18.0387 14.0077C17.8804 13.9541 17.7365 13.8648 17.6183 13.7465C17.5 13.6283 17.4106 13.4844 17.3571 13.326C17.3035 13.1677 17.2871 12.9991 17.3092 12.8333V3.05556C17.3092 2.89348 17.2448 2.73804 17.1302 2.62344C17.0156 2.50883 16.8602 2.44445 16.6981 2.44445H14.8648C14.7027 2.44445 14.5473 2.50883 14.4327 2.62344C14.3181 2.73804 14.2537 2.89348 14.2537 3.05556V12.8333C14.2537 15.5833 16.3926 17.1111 19.1426 17.1111H33.1981C33.3602 17.1111 33.5156 17.0467 33.6302 16.9321C33.7448 16.8175 33.8092 16.6621 33.8092 16.5V11C33.8302 10.1918 33.6865 9.38769 33.3868 8.63676C33.0872 7.88583 32.6378 7.20374 32.0661 6.63203C31.4944 6.06032 30.8123 5.61095 30.0614 5.31127C29.3104 5.0116 28.5064 4.86789 27.6981 4.88889H26.1826ZM9.9759 2.44445C9.81382 2.44445 9.65838 2.50883 9.54378 2.62344C9.42917 2.73804 9.36479 2.89348 9.36479 3.05556V12.8333C9.39228 13 9.37966 13.1709 9.32797 13.3317C9.27627 13.4926 9.18699 13.6388 9.06752 13.7583C8.94805 13.8778 8.80183 13.967 8.64098 14.0187C8.48012 14.0704 8.30927 14.0831 8.14256 14.0556H1.42034C1.25827 14.0556 1.10283 14.1199 0.988221 14.2345C0.873616 14.3492 0.809231 14.5046 0.809231 14.6667V16.5C0.809231 16.6621 0.873616 16.8175 0.988221 16.9321C1.10283 17.0467 1.25827 17.1111 1.42034 17.1111H8.14256C10.8926 17.1111 12.4203 15.5833 12.4203 12.8333V3.05556C12.4203 2.89348 12.356 2.73804 12.2414 2.62344C12.1267 2.50883 11.9713 2.44445 11.8092 2.44445H9.9759ZM2.54479 11.4461L0.19812 3.05556C0.100342 2.71333 0.454787 2.44445 0.809231 2.44445H2.44701C2.60684 2.4276 2.76786 2.46243 2.90644 2.54382C3.04502 2.62521 3.15387 2.74888 3.21701 2.89667L5.69812 11.385C5.72575 11.4573 5.73437 11.5355 5.72314 11.612C5.71192 11.6886 5.68123 11.761 5.63401 11.8224C5.58679 11.8837 5.52463 11.9319 5.45346 11.9623C5.3823 11.9927 5.30452 12.0043 5.22756 11.9961H3.25368C3.09183 11.9938 2.93512 11.9389 2.80724 11.8397C2.67935 11.7405 2.58723 11.6023 2.54479 11.4461Z" fill="white"/>
</svg>
