<?xml version="1.0" encoding="UTF-8" standalone="no"?>
<svg xmlns="http://www.w3.org/2000/svg" version="1.1" viewBox="0.00 0.00 192.00 192.00">
  <path fill="white" d="   M 192.00 45.49   L 192.00 54.37   Q 189.94 59.22 185.68 61.44   Q 179.84 64.48 172.45 67.44   C 169.38 68.67 166.40 67.35 165.94 64.06   C 165.48 60.72 168.21 59.41 170.97 58.53   A 0.40 0.40 0.0 0 0 171.17 57.93   C 166.90 51.60 167.44 44.46 173.11 39.87   Q 177.01 36.72 182.68 37.57   Q 189.02 38.51 192.00 45.49   Z   M 184.63 49.54   A 4.19 4.19 0.0 0 0 180.44 45.35   A 4.19 4.19 0.0 0 0 176.25 49.54   A 4.19 4.19 0.0 0 0 180.44 53.73   A 4.19 4.19 0.0 0 0 184.63 49.54   Z"></path>
  <path fill="white" d="   M 136.80 82.19   C 144.16 86.44 151.48 91.88 155.33 98.86   Q 157.86 103.44 158.45 109.69   Q 159.59 121.85 153.80 131.36   C 150.68 136.48 145.30 141.39 139.76 142.74   Q 134.59 143.99 128.57 144.04   Q 114.03 144.16 75.11 144.15   A 0.34 0.34 0.0 0 1 74.77 143.81   L 75.02 68.21   Q 75.02 67.68 75.55 67.68   L 99.25 67.67   A 0.58 0.57 90.0 0 1 99.82 68.25   L 99.82 117.93   Q 99.82 118.41 100.31 118.42   Q 117.35 118.46 125.80 118.46   Q 130.29 118.46 131.78 117.56   C 136.41 114.75 135.20 109.17 132.62 105.52   C 127.34 98.06 116.98 95.60 108.20 95.60   Q 107.62 95.60 107.62 95.02   L 107.63 68.27   Q 107.63 67.80 108.06 67.61   L 158.66 46.00   Q 159.33 45.72 159.33 46.44   L 159.32 71.95   Q 159.32 72.52 158.80 72.72   L 136.83 81.52   Q 136.13 81.80 136.80 82.19   Z"></path>
  <path fill="white" d="   M 190.57 66.83   L 190.57 143.52   A 0.30 0.30 0.0 0 1 190.27 143.82   L 166.05 143.82   A 0.30 0.30 0.0 0 1 165.75 143.52   L 165.75 77.05   A 0.30 0.30 0.0 0 1 165.93 76.77   L 190.15 66.56   A 0.30 0.30 0.0 0 1 190.57 66.83   Z"></path>
  <path fill="white" d="   M 36.16 118.26   C 39.80 117.31 40.86 114.76 40.87 110.96   Q 40.87 102.10 40.88 68.17   Q 40.88 67.57 41.46 67.57   L 65.03 67.57   Q 65.61 67.57 65.61 68.16   Q 65.66 108.47 65.62 114.61   C 65.53 127.42 57.15 138.38 45.22 142.52   Q 40.03 144.33 27.69 144.02   Q 25.19 143.96 9.85 143.98   Q 9.31 143.98 9.21 143.45   L 4.54 118.95   Q 4.43 118.37 5.01 118.37   L 13.52 118.37   A 0.33 0.32 82.7 0 0 13.83 117.97   L 0.92 68.06   Q 0.81 67.63 1.26 67.63   L 22.05 67.62   Q 22.68 67.62 22.83 68.23   L 35.41 117.82   Q 35.56 118.42 36.16 118.26   Z"></path>
</svg>
