<svg width="77" height="38" viewBox="0 0 77 38" fill="none" xmlns="http://www.w3.org/2000/svg">
<path id="Vector" fill-rule="evenodd" clip-rule="evenodd" d="M31.0403 0.0794266H34.2974C33.6537 2.54839 33.0121 5.01662 32.3728 7.48411L31.7806 7.92605V8.0741L31.1884 8.22215V8.3702H28.9787C29.6607 5.60808 30.348 2.84449 31.0403 0.0794266ZM50.7309 3.04042L50.4348 2.15654H50.289C50.3862 1.7146 50.4849 1.27266 50.5851 0.830723C51.0116 0.56335 51.6899 -0.274125 52.6578 0.0904749V0.238525H52.9406V0.386574L53.3826 0.534624V0.682673H53.5306C54.5515 2.17422 53.2831 3.61936 51.7629 3.64366C51.4735 3.36107 51.1191 3.15391 50.7309 3.04042ZM73.5283 0.0794266H76.6352V13.1166H73.5261L73.5283 0.0794266ZM48.0638 3.92872H51.0248V8.52046H51.1729V9.56565C51.8358 9.95455 51.807 10.2838 52.9406 10.3059V10.1578H53.3826V10.0076L53.8245 9.85954C53.8731 9.66287 53.9217 9.464 53.9725 9.26734H54.1206V3.92872H57.0926C57.2562 4.94517 57.2407 6.39032 57.2407 7.63216V9.26071H57.3887C57.5721 9.62089 57.3357 9.48168 57.6848 9.70265C58.1422 10.1645 59.4526 9.99875 60.3497 9.99875H66.2717C67.3942 9.99875 68.3621 10.107 68.7886 9.40655C69.3366 8.85633 69.0979 5.27442 69.0846 4.07456H72.1937V10.1468C72.0478 10.5887 71.7186 11.097 71.6015 11.6273H71.3054C71.2037 12.0692 71.1397 12.1134 70.7132 12.2217V12.5178L70.121 12.6592V12.8073H69.6791V12.9553H69.3808V13.1034H58.129V12.9553H57.687V12.8073H57.3887V12.6592H57.0926V12.5112C56.7347 12.2217 56.6507 12.0007 56.0563 11.919V12.2173L55.6143 12.3653V12.5134H55.316C55.2674 12.6106 55.2188 12.71 55.168 12.8095C54.8122 13.0039 51.5927 13.3641 50.8768 13.1122V12.9642H50.5807V12.8161H50.1387V12.6592H49.847V12.5112H49.5443C49.3675 12.3941 49.1996 11.8041 48.8041 11.919L48.3621 12.5112H48.0638C48.0152 12.6084 47.9644 12.7078 47.9158 12.8073H47.4738V12.9553H47.0319V13.1034H33.8533C34.0566 12.3182 34.254 11.5308 34.4455 10.7412L34.8874 10.4451V10.2971H35.1835V10.149C36.0166 9.80429 37.9147 10.0076 39.0328 10.0076C41.8634 10.0076 45.0299 10.096 47.6197 9.85954V9.56565H47.9158C47.9909 7.88849 48.0594 5.82242 48.0638 3.92872ZM28.5235 12.2173C28.4749 12.0692 28.4241 11.9212 28.3754 11.7753H28.2274V11.4815H28.0793V10.1556C28.4484 9.81976 28.5213 9.44411 28.9632 9.11929V8.97124H29.5554C29.9974 8.55803 30.8967 9.01985 31.3232 9.11929C31.4824 9.3943 31.682 9.64383 31.9154 9.85954C31.964 10.5224 32.196 11.1854 31.7673 11.6273C31.7393 11.7894 31.6718 11.9421 31.5708 12.0719C31.4699 12.2018 31.3385 12.3048 31.1884 12.372C30.9917 12.5753 29.9532 12.8493 29.4206 12.6681V12.52H28.9787V12.372L28.5235 12.2173ZM36.516 13.985C37.265 13.985 37.4639 14.1596 37.9965 14.2811L38.4384 14.8733H38.5864C38.7853 15.1849 38.7367 15.7086 38.7345 16.1992C37.928 16.9217 38.2462 17.525 36.5248 17.525V17.3769H36.2287V17.2289H35.926V17.0808C35.5547 16.7737 34.8079 16.1351 35.1879 15.1562H35.336V14.8888H35.484L35.926 14.2966C36.1735 14.1265 36.2574 14.29 36.516 14.0005V13.985ZM40.9574 13.985C41.7065 13.985 41.9054 14.1596 42.4379 14.2811L43.1782 15.165C43.218 16.8378 42.5551 17.5824 40.9574 17.5537V17.4056H40.6613V17.2576H40.3652C39.9366 16.9571 39.2913 15.6379 39.7731 14.8888H39.9211L40.363 14.2966C40.6149 14.1265 40.6989 14.29 40.9574 14.0005V13.985ZM47.3236 14.5927L47.4716 15.1849H47.6197C47.5711 15.6777 47.5202 16.1726 47.4716 16.6654C46.7071 17.1073 46.7203 17.5493 45.3989 17.5493C44.6764 16.7427 44.0731 17.0609 44.0731 15.3396C44.8797 14.617 44.5615 14.0138 46.2939 14.0138C46.5852 14.2872 46.9385 14.4859 47.3236 14.5927ZM71.3054 17.5537V17.8498H71.0093C70.7618 18.2166 70.4812 18.1879 70.1254 18.4442L69.6835 19.0364H69.3808C69.3299 19.1336 69.2813 19.2331 69.2327 19.3325H68.9366L68.4947 19.9247H68.1875C68.1367 20.0219 68.0881 20.1214 68.0395 20.2208C67.5246 20.5655 67.1843 20.5456 66.8551 21.1047C67.9599 21.0848 69.3896 21.0163 70.1122 21.4008C70.1608 21.5002 70.2094 21.5974 70.2602 21.6969H70.5563V21.8449L70.9982 21.993V22.2935H71.2943C71.343 22.4415 71.3916 22.5896 71.4424 22.7354H71.5904V23.0448L71.8865 23.1928V23.774H72.0346V24.2159H72.1826V27.0333H72.0346V27.4752H71.8865V27.9172H71.7385C71.6877 28.1138 71.6391 28.3127 71.5904 28.5094L70.8502 29.1016L70.7021 29.3977H70.406C70.3552 29.4971 70.3066 29.5965 70.258 29.6938H69.8161L69.668 29.9899H68.6317C67.0849 30.4318 64.2631 30.1379 62.4136 30.1379H56.7965V29.9899H55.7602L55.6121 29.6938H55.1702L54.5802 28.9535L54.1383 29.1016V29.3977C53.7291 29.5031 53.3321 29.6512 52.9539 29.8396V29.9876L51.0292 30.1357V29.9876H49.9885C49.6504 29.8639 49.4206 29.5192 48.9521 29.3954V29.106C48.5787 29.1281 48.4262 29.106 48.2119 29.254V29.4021H47.9158L47.7677 29.6982H47.3258C47.2772 29.7976 47.2263 29.897 47.1777 29.9943H46.2939V30.1423H45.1028V29.9943H44.0665C44.0179 29.897 43.967 29.7976 43.9184 29.6982H43.4765C43.3528 29.6253 42.5926 28.5801 42.4402 28.6618V28.8099C42.2722 28.98 42.3805 28.8099 42.2921 29.106H41.9938V29.4021L41.5519 29.5501V29.6982H41.1099C41.0613 29.7976 41.0127 29.897 40.9619 29.9943H39.9255V30.1423L37.8528 29.9943C37.8042 29.897 37.7556 29.7976 37.7048 29.6982H37.2628L37.1148 29.4021H36.8098V29.254L36.3679 29.106C35.6696 30.2108 32.8147 30.4119 31.3364 29.8462C31.3165 32.2769 29.7896 33.8568 27.9313 34.438H24.9703V31.625C25.9161 31.6334 26.8599 31.534 27.7832 31.3289C27.9313 31.0571 28.276 30.7146 28.3754 30.4451V23.6259H31.3364V26.293L31.6325 26.4411V26.7372H31.9286V27.0333C32.4413 27.0885 33.3274 27.4045 34.0013 27.1813V27.0333H34.4433V26.8852L34.8852 26.7372C34.9338 26.5405 34.9824 26.3416 35.0333 26.145H35.1813V22.2935H38.1357V26.293H38.2837C38.3345 26.5405 38.3832 26.7858 38.4318 27.0333H38.7279C38.7787 27.1327 38.8273 27.2299 38.8759 27.3294H40.3564L40.6525 26.8874H40.8006V26.5803H40.9486C41.0002 25.1484 41.0495 23.7165 41.0967 22.2847H44.0665C44.0311 23.6834 43.7881 26.9007 44.6587 27.3205H46.1392C46.3049 27.0664 46.232 27.1195 46.5811 27.0244C46.6297 26.7283 46.6806 26.4322 46.7292 26.1406H46.8772V22.2935H49.847V26.293H49.9951C50.0437 26.5405 50.0923 26.7858 50.1431 27.0333C50.7309 27.2962 51.1375 27.336 52.0678 27.3294C52.2243 27.0517 52.4217 26.7992 52.6534 26.5803V22.2935H55.6121C55.6121 23.7806 55.7248 25.3031 55.7602 26.5891C55.923 26.7201 56.0711 26.8683 56.2021 27.0311H68.3422C68.5145 26.83 68.6118 26.8101 68.9344 26.735C69.0714 26.1715 69.3343 26.0014 69.3763 25.2545C69.0957 25.007 69.1244 24.7352 68.7841 24.5142C68.3687 24.1054 67.3788 24.2181 66.5744 24.2159C64.8067 24.2159 62.7936 24.2027 61.2447 24.0679V21.1091H61.5408V20.813C62.0733 20.6826 62.2037 20.3711 62.7252 20.2208V19.9247H63.0212C63.2621 19.5535 63.5494 19.5866 63.9051 19.3325L64.3471 18.7403H64.652L64.8001 18.4442H65.0939L65.5359 17.8498H65.832C65.8806 17.7526 65.9314 17.6531 65.98 17.5537H66.2761L66.5722 17.1118H71.902V17.2598C71.7341 17.3858 71.8799 17.2421 71.754 17.4079L71.3054 17.5537ZM73.5151 17.1118H76.6219V30.149H73.5261L73.5151 17.1118ZM10.9078 22.2935H13.8688V26.293H14.0168C14.0655 26.5405 14.1141 26.7858 14.1649 27.0333C14.6223 27.2764 14.4301 27.3139 15.2012 27.3294V27.4774H15.3493V27.3294H16.0895C16.1956 27.1416 16.505 26.9361 16.5315 26.8874C16.9359 26.1472 16.684 23.4072 16.6795 22.2957H19.6383C19.6007 23.679 19.3864 26.9228 20.2305 27.3316H20.9708V27.4796H21.1188V27.3316H21.8591C22.0005 27.0642 22.0646 27.0974 22.1552 26.7394C22.6678 26.2201 22.4689 23.3917 22.4468 22.2935H25.4078C25.452 24.5827 25.5846 27.1548 24.6676 28.5138L24.0754 28.9557L23.7793 29.3977H23.4832C23.4346 29.4971 23.3837 29.5965 23.3351 29.6938H22.8932V29.8418H22.6015V29.9899H21.7176V30.1379L19.793 29.9899V29.8418H19.4969V29.6938H19.2008V29.5457L18.7589 29.3977V29.106H18.4628C18.3567 28.6972 18.423 28.7745 18.0208 28.664C17.8683 29.2452 17.5966 29.2872 17.1369 29.5479V29.696H16.843V29.844H16.5469V29.9921H15.5106V30.1401L13.8821 29.844V29.9921C13.5484 30.2992 13.7738 30.3235 13.586 30.7345H13.4379V31.0306H13.2899V31.3267H13.1418C13.091 31.4748 13.0424 31.6228 12.9938 31.7687C12.8943 31.8173 12.7949 31.8659 12.6977 31.9167V32.2128L12.1055 32.6547L11.9574 32.9508H11.6613L11.2194 33.543H10.7774C10.7266 33.6425 10.678 33.7397 10.6294 33.8391H10.1874V33.9872H9.89135V34.1352H9.29915V34.2833H9.00305V34.4313H5.74596V34.2833L4.70961 34.1352V33.9872L3.82574 33.6911V33.543H3.52964L3.38159 33.2469H3.08549V33.0989C2.88218 32.8887 2.62674 32.7362 2.34524 32.657C2.11101 31.751 1.29122 31.5344 1.16084 30.434H0.864746V23.6259C1.96959 23.6149 3.24459 23.6127 4.12184 23.774V29.4021H4.26989C4.36932 29.6982 4.46655 29.9943 4.56598 30.286C4.74055 30.3854 4.7759 30.5246 4.86208 30.5843H5.15818L5.30623 30.8804H5.60233C5.65095 30.9776 5.70177 31.077 5.75038 31.1765C5.99345 31.3046 7.76783 31.6493 8.26722 31.4726V31.3245H8.56332V31.1765H9.15552L9.30357 30.8804H9.59967V30.7323L10.0416 30.5843C10.0829 30.3624 10.1854 30.1565 10.3377 29.9899H10.4858C10.583 29.6938 10.6824 29.3977 10.7819 29.106H10.9299L10.9078 22.2935ZM35.1857 31.7731C35.2852 32.1531 35.7801 32.7365 35.6277 33.2536H35.484V33.6955H35.336C35.2852 33.8436 35.2365 33.9916 35.1879 34.1375H34.8918C34.841 34.2369 34.7924 34.3341 34.7438 34.4336H33.418C33.155 34.038 32.8258 34.0933 32.6777 33.5497H32.5297V32.3653C32.8214 32.1973 32.8744 32.1443 32.9716 31.7731H33.2677C33.3163 31.6736 33.3649 31.5742 33.4158 31.477C34.0831 31.1963 34.7747 31.6803 35.1857 31.7731ZM36.9535 34.1419V33.8458H36.6574C36.6088 33.4038 36.5594 32.9619 36.5093 32.52H36.6574V32.2172H36.8098C36.8607 32.0692 36.9093 31.9211 36.9579 31.7753L37.5501 31.6272V31.4792C38.0296 31.3157 38.5643 31.5676 38.8759 31.6272L39.3179 32.2194H39.4659C39.6648 32.531 39.6162 33.0547 39.614 33.5453C39.172 33.8391 39.5123 33.7662 39.3179 33.9872L38.8759 34.1352C38.8273 34.2347 38.7787 34.3319 38.7279 34.4313H37.402C37.2385 34.1839 37.3115 34.2369 36.9601 34.1419H36.9535ZM35.1857 37.6973C35.1349 37.5492 35.0863 37.4012 35.0377 37.2553H34.8896V36.9659H34.7416C34.4344 36.1063 35.2144 35.1981 35.6255 35.039H36.9513C37.2452 35.4809 37.1722 35.1407 37.3932 35.3351C37.444 35.4832 37.4926 35.6312 37.5413 35.777L37.8374 35.9251V36.9659C37.3954 37.262 37.76 37.1272 37.5413 37.4078L37.2452 37.5559V37.7039H36.9491C36.9004 37.8011 36.8518 37.9006 36.801 38H35.7669C35.6034 37.7901 35.5061 37.7658 35.1857 37.6973Z" fill="white"/>
</svg>
